<svg width="91" height="56" viewBox="0 0 91 56" fill="none" xmlns="http://www.w3.org/2000/svg">
<path d="M40.9179 27.255C38.4192 42.247 36.3813 54.5277 36.399 54.5454C36.4699 54.6163 45.2241 56.0517 45.2773 55.9986C45.3127 55.9631 47.3329 43.8774 49.7784 29.1689C52.2239 14.4427 54.2796 2.19741 54.315 1.94932L54.4214 1.48857L50.381 0.832893C48.1658 0.460751 46.1456 0.12405 45.8975 0.0708847L45.4545 0L40.9179 27.255Z" fill="white"/>
<path d="M12.6174 15.3108L0 27.9282L12.706 40.6519L25.4297 53.3579L28.5664 50.2213L31.7207 47.0669L22.2045 37.5507L12.6706 28.0168L22.2045 18.4829L31.7207 8.96664L28.5664 5.81229C26.8474 4.09335 25.3943 2.67567 25.3411 2.67567C25.288 2.67567 19.5641 8.36413 12.6174 15.3108Z" fill="white"/>
<path d="M62.1479 5.81229L59.0112 8.96664L68.5274 18.4829L78.0614 28.0168L68.5274 37.5507L59.0112 47.0669L62.1656 50.2213L65.3022 53.3579L78.0259 40.6519L90.7319 27.9282L78.1145 15.3108C71.1679 8.36413 65.444 2.67567 65.3908 2.67567C65.3377 2.67567 63.8845 4.09335 62.1479 5.81229Z" fill="white"/>
</svg>
