<svg width="56" height="57" viewBox="0 0 56 57" fill="none" xmlns="http://www.w3.org/2000/svg">
<rect y="0.0131836" width="56" height="56" rx="4" fill="white"/>
<path d="M6.06872 6.54599C6.09817 6.84678 7.01116 15.7413 8.0714 26.3202C9.14145 36.8991 10.0446 45.5702 10.0643 45.596C10.0937 45.6218 14.1481 46.6187 19.0665 47.8218L28.0098 50.0132L36.9531 47.8218C41.8715 46.6187 45.9259 45.6218 45.9456 45.596C45.975 45.5702 49.9706 6.54599 50 6.03037C50 6.02178 40.1044 6.01318 28 6.01318H6L6.06872 6.54599ZM41.9009 14.4522C41.8715 14.6585 41.3414 19.8319 40.7229 25.9507C39.3191 39.7437 39.427 38.764 39.3289 38.8413C39.2896 38.8757 36.7175 39.5116 33.6252 40.2593L28 41.6085L22.3846 40.2593C19.2923 39.5116 16.73 38.8757 16.6908 38.8413C16.6319 38.7897 15.8465 31.7515 15.8367 31.1671C15.8367 31.0296 16.033 31.021 18.5855 31.021C20.7059 31.021 21.3539 31.0468 21.3833 31.1241C21.4029 31.1843 21.5109 32.1038 21.6189 33.1608C21.7269 34.2179 21.8349 35.0944 21.8447 35.103C21.9232 35.1546 27.8429 36.521 27.9902 36.521C28.1374 36.521 34.0964 35.146 34.1749 35.0944C34.1946 35.0858 34.3811 33.6937 34.5872 31.9921C34.8032 30.2991 34.9897 28.7866 35.0192 28.6319L35.0683 28.3569H25.3199H15.5716L15.5127 28.0304C15.3655 27.1452 15.0219 23.8882 15.071 23.8366C15.1004 23.8108 19.3217 23.7507 24.4462 23.7077C29.5609 23.6647 34.1553 23.6046 34.6461 23.5788L35.5297 23.5272L35.7064 21.3272C35.7947 20.1155 35.9027 19.0069 35.9322 18.8694L35.9813 18.6288L25.2218 18.6632L14.4721 18.689L14.423 18.2593C14.3936 18.0272 14.3249 17.1679 14.266 16.3687C14.2071 15.5608 14.1383 14.7272 14.1089 14.4952L14.05 14.0913H28.0098H41.9598L41.9009 14.4522Z" fill="#616161"/>
</svg>
