<svg width="32" height="33" viewBox="0 0 32 33" fill="none" xmlns="http://www.w3.org/2000/svg">
<rect y="0.973633" width="32" height="32" rx="4" fill="white"/>
<g clip-path="url(#clip0_70_2426)">
<path fill-rule="evenodd" clip-rule="evenodd" d="M16.0002 14.4733C14.6195 14.4733 13.5002 15.5926 13.5002 16.9733C13.5002 18.354 14.6195 19.4733 16.0002 19.4733C17.3809 19.4733 18.5002 18.354 18.5002 16.9733C18.5002 15.5926 17.3809 14.4733 16.0002 14.4733ZM11.8335 16.9733C11.8335 14.6721 13.699 12.8066 16.0002 12.8066C18.3013 12.8066 20.1668 14.6721 20.1668 16.9733C20.1668 19.2745 18.3013 21.14 16.0002 21.14C13.699 21.14 11.8335 19.2745 11.8335 16.9733Z" fill="#616161"/>
<path fill-rule="evenodd" clip-rule="evenodd" d="M12.0836 8.68647C13.9541 7.8025 16.0687 7.5773 18.0834 8.04749C20.0982 8.51767 21.8946 9.65558 23.1807 11.2762C24.4667 12.8968 25.1667 14.9048 25.1668 16.9737V17.8071C25.1668 18.6912 24.8157 19.539 24.1905 20.1641C23.5654 20.7892 22.7176 21.1404 21.8335 21.1404C20.9495 21.1404 20.1016 20.7892 19.4765 20.1641C18.8514 19.539 18.5002 18.6912 18.5002 17.8071V13.6404C18.5002 13.1802 18.8733 12.8071 19.3335 12.8071C19.7937 12.8071 20.1668 13.1802 20.1668 13.6404V17.8071C20.1668 18.2491 20.3424 18.6731 20.655 18.9856C20.9676 19.2982 21.3915 19.4738 21.8335 19.4738C22.2755 19.4738 22.6995 19.2982 23.012 18.9856C23.3246 18.6731 23.5002 18.2491 23.5002 17.8071V16.9738C23.5002 16.9738 23.5002 16.9738 23.5002 16.9738C23.5001 15.2811 22.9273 13.6382 21.8751 12.3122C20.8229 10.9863 19.3531 10.0552 17.7047 9.67054C16.0562 9.28585 14.3261 9.4701 12.7957 10.1933C11.2652 10.9166 10.0245 12.1363 9.27511 13.6541C8.52576 15.1719 8.3119 16.8986 8.6683 18.5534C9.0247 20.2082 9.9304 21.6937 11.2381 22.7685C12.5459 23.8433 14.1787 24.4441 15.8712 24.4732C17.5637 24.5023 19.2163 23.958 20.5602 22.9288C20.9256 22.649 21.4486 22.7184 21.7285 23.0838C22.0083 23.4492 21.9389 23.9722 21.5735 24.2521C19.9309 25.5099 17.9112 26.1752 15.8426 26.1396C13.774 26.104 11.7783 25.3697 10.1799 24.0561C8.58157 22.7425 7.47459 20.9268 7.03899 18.9043C6.60339 16.8818 6.86478 14.7714 7.78066 12.9163C8.69654 11.0612 10.213 9.57043 12.0836 8.68647Z" fill="#616161"/>
</g>
<defs>
<clipPath id="clip0_70_2426">
<rect width="20" height="20" fill="white" transform="translate(6 6.97363)"/>
</clipPath>
</defs>
</svg>
