<svg width="56" height="57" viewBox="0 0 56 57" fill="none" xmlns="http://www.w3.org/2000/svg">
<rect x="10.5" y="10.5132" width="35" height="35" fill="#616161"/>
<path d="M27.1627 31.5359V24.4906H23.5262C21.5806 24.4906 20.0035 26.0678 20.0035 28.0133C20.0035 29.9514 21.5686 31.5239 23.5038 31.5359L23.5262 31.5359H27.1627Z" fill="white"/>
<path d="M20.0035 36.7745C20.0035 34.8365 21.5686 33.2639 23.5038 33.2519L23.5262 33.252H27.1627V36.7176C27.1627 38.6874 25.5386 40.2972 23.5544 40.2972C21.6017 40.2972 20.0035 38.7129 20.0035 36.7745Z" fill="white"/>
<path d="M32.4013 31.536C30.4558 31.536 28.8786 29.9588 28.8786 28.0133C28.8786 26.0678 30.4558 24.4906 32.4013 24.4906H32.5151C34.4606 24.4906 36.0378 26.0678 36.0378 28.0133C36.0378 29.9588 34.4606 31.536 32.5151 31.536H32.4013Z" fill="white"/>
<path d="M32.5151 22.7745H28.8786V15.7292H32.5151C34.4606 15.7292 36.0378 17.3063 36.0378 19.2518C36.0378 21.1974 34.4606 22.7745 32.5151 22.7745Z" fill="white"/>
<path d="M23.5262 15.7292H27.1627V22.7745H23.5262C21.5807 22.7745 20.0035 21.1974 20.0035 19.2518C20.0035 17.3063 21.5806 15.7292 23.5262 15.7292Z" fill="white"/>
<path fill-rule="evenodd" clip-rule="evenodd" d="M47.25 0.0131836C52.0825 0.0131836 56 3.93069 56 8.76318V47.2632C56 52.0957 52.0825 56.0132 47.25 56.0132H8.75C3.91751 56.0132 0 52.0957 0 47.2632V8.76318C0 3.93069 3.91751 0.0131836 8.75 0.0131836H47.25ZM23.5262 14.0132C20.6329 14.0132 18.2875 16.3586 18.2875 19.2518C18.2875 21.0839 19.2279 22.6962 20.6523 23.6326C19.2279 24.5689 18.2875 26.1813 18.2875 28.0133C18.2875 29.8452 19.2278 31.4576 20.6522 32.3939C19.2278 33.3303 18.2875 34.9426 18.2875 36.7745C18.2875 39.6749 20.6684 42.0132 23.5544 42.0132C26.4719 42.0132 28.8786 39.6494 28.8786 36.7176V31.8907C29.809 32.7365 31.0449 33.252 32.4013 33.252H32.5151C35.4083 33.252 37.7538 30.9065 37.7538 28.0133C37.7538 26.1813 36.8134 24.5689 35.3889 23.6326C36.8134 22.6962 37.7538 21.0839 37.7538 19.2518C37.7538 16.3586 35.4083 14.0132 32.5151 14.0132H23.5262Z" fill="white"/>
</svg>
