<svg width="56" height="56" viewBox="0 0 56 56" fill="none" xmlns="http://www.w3.org/2000/svg">
<rect x="10.5" y="10.5" width="35" height="35" fill="#616161"/>
<path fill-rule="evenodd" clip-rule="evenodd" d="M0 8.75C0 3.91751 3.91751 0 8.75 0H47.25C52.0825 0 56 3.91751 56 8.75V47.25C56 52.0825 52.0825 56 47.25 56H8.75C3.91751 56 0 52.0825 0 47.25V8.75ZM14 28.2932C14 20.5868 20.2507 14.336 27.9572 14.336C35.6636 14.336 41.9143 20.5868 42 28.2932C42 34.4583 38.0611 39.6816 32.4954 41.5654C31.8104 41.651 31.5535 41.2229 31.5535 40.8803V37.0271C31.5535 35.7427 31.1254 34.8865 30.6116 34.4583C33.6942 34.1158 36.948 33.0027 36.948 27.6082C36.948 26.0669 36.3486 24.7825 35.4924 23.8406C35.4991 23.8137 35.5085 23.7799 35.5197 23.7396C35.6508 23.2667 36.0312 21.8944 35.3211 20.1586C35.3211 20.1586 34.1223 19.8161 31.4678 21.6143C30.3548 21.3574 29.1559 21.1862 27.9572 21.1862C26.7584 21.1862 25.5597 21.2718 24.4465 21.6143C21.792 19.8161 20.5933 20.1586 20.5933 20.1586C19.8365 22.0085 20.3183 23.4456 20.417 23.7399L20.422 23.755C19.4801 24.7825 18.9663 25.9813 18.9663 27.5225C18.9663 32.917 22.2202 34.1158 25.3028 34.4583C24.9603 34.8008 24.5322 35.4002 24.4465 36.3421C23.6758 36.6846 21.7065 37.284 20.422 35.1433C20.422 35.1433 19.6514 33.7733 18.2813 33.6877C18.2813 33.6877 16.9114 33.6877 18.1958 34.544C18.1958 34.544 19.1376 34.9721 19.737 36.599C19.737 36.599 20.5933 39.3391 24.4465 38.4828V40.8803C24.4465 41.2229 24.1896 41.651 23.5046 41.5654C18.0244 39.6816 14 34.4583 14 28.2932Z" fill="white"/>
</svg>
