<svg width="56" height="57" viewBox="0 0 56 57" fill="none" xmlns="http://www.w3.org/2000/svg">
<rect y="0.0131836" width="56" height="56" rx="4" fill="white"/>
<path d="M26.7845 6.13741C26.0172 6.30093 25.3621 6.59356 24.7069 7.06691C24.4224 7.27347 20.319 11.3185 15.6034 16.0435C6.58621 25.0716 6.7069 24.9425 6.22414 26.2077C6.01724 26.7327 6 26.8962 6 28.0323C6 29.1683 6.01724 29.3318 6.22414 29.8568C6.7069 31.1306 6.56897 30.9757 15.7759 40.176C22.4483 46.846 24.6466 48.9976 25.0431 49.23C25.3276 49.3935 25.8707 49.6431 26.25 49.7722C26.8534 49.9874 27.0603 50.0132 27.9741 50.0132C28.8621 50.0132 29.1034 49.9788 29.7155 49.7722C30.1293 49.6431 30.6897 49.3677 31.0517 49.1181C31.5172 48.8083 33.9138 46.4673 40.3534 40.0211L49.0345 31.3458L49.3879 30.6142C49.8534 29.6503 50 29.0306 50 28.0323C50 26.7241 49.6638 25.6741 48.9224 24.6844C48.4828 24.0905 31.569 7.27347 31.0948 6.95503C29.8534 6.1202 28.2672 5.81897 26.7845 6.13741ZM29.2672 8.15993C29.5259 8.2546 29.9655 8.50419 30.2414 8.71075C30.7672 9.10664 47.25 25.6483 47.5603 26.0958C48.2414 27.0769 48.2759 28.781 47.6207 29.8827C47.5086 30.072 43.4914 34.1429 38.6897 38.9281C29.1207 48.4554 29.7759 47.8788 28.4741 48.0939C27.6724 48.2316 26.7759 48.0423 26.0603 47.5776C25.7414 47.3624 22.431 44.1091 16.9741 38.6526C7.11207 28.7724 7.88793 29.6847 7.88793 28.0237C7.88793 27.1544 7.89655 27.0942 8.2069 26.4745C8.50862 25.872 8.84483 25.5192 15.1466 19.2278L21.7672 12.6267L22.8793 13.7369L23.9828 14.8472L23.7586 15.2258C23.4655 15.7336 23.1897 16.818 23.1897 17.4893C23.1897 18.1865 23.4655 19.2365 23.7931 19.8131C24.3707 20.8287 25.3707 21.6549 26.4224 22.0077L26.9828 22.1971V27.0769V31.9654L26.6207 32.0687C25.3966 32.4302 24.2328 33.4285 23.6724 34.5904C22.3362 37.3961 23.9655 40.6838 27.0259 41.3293C27.7845 41.4842 28.1638 41.4842 28.9224 41.3293C32.0862 40.6666 33.6897 37.2584 32.1897 34.3924C31.6466 33.3597 30.5431 32.4302 29.4828 32.1117L28.9655 31.9568V27.0769V22.1971L29.4224 22.0508C29.6638 21.9733 30.0431 21.8098 30.2586 21.6979L30.6379 21.4827L32.1034 22.9458L33.569 24.4089L33.3448 24.8221C32.9741 25.5106 32.8103 26.1819 32.8103 27.0856C32.8103 28.4023 33.2759 29.5126 34.2155 30.4421C35.1724 31.3888 36.2241 31.8191 37.5862 31.8191C38.9483 31.8191 40 31.3888 40.9483 30.4421C41.8966 29.4954 42.3362 28.4282 42.3362 27.0856C42.3362 25.7171 41.8966 24.6585 40.9138 23.6774C40.0259 22.7909 38.7931 22.2659 37.5862 22.2659C36.9828 22.2659 36.0431 22.4983 35.4397 22.7909L34.8966 23.0577L33.4397 21.6118L31.9914 20.1573L32.2759 19.5721C33.181 17.7303 32.819 15.5959 31.3448 14.1242C29.8534 12.6353 27.6897 12.2824 25.819 13.2291L25.3103 13.4959L24.2069 12.3943L23.1034 11.2927L24.4569 9.93287C25.8879 8.50419 26.3793 8.15993 27.2414 7.9792C27.7845 7.86731 28.7069 7.94477 29.2672 8.15993ZM29.2845 14.9504C29.8966 15.2517 30.2759 15.6562 30.5948 16.3275C30.7759 16.7148 30.819 16.9299 30.819 17.4893C30.819 18.1004 30.7845 18.2553 30.5345 18.7545C30.2155 19.4086 29.8276 19.7873 29.1379 20.1057C28.4655 20.4241 27.4914 20.4241 26.8103 20.1057C26.1897 19.8131 25.6379 19.2709 25.3621 18.6684C25.0431 17.9799 25.0345 17.0074 25.3534 16.3275C25.7241 15.5357 26.4828 14.8988 27.3017 14.6922C27.8621 14.5545 28.6897 14.6578 29.2845 14.9504ZM38.6897 24.4348C39.2414 24.6413 39.8879 25.2438 40.1724 25.8376C40.3534 26.1991 40.3879 26.3884 40.3879 27.0856C40.3879 27.7999 40.3621 27.9548 40.1552 28.3335C39.2328 30.0978 36.931 30.4593 35.5431 29.065C35 28.5314 34.7931 28.0323 34.7586 27.2147C34.7155 26.3712 34.9224 25.7429 35.4224 25.1749C36.2241 24.2712 37.4655 23.9872 38.6897 24.4348ZM29 33.9793C29.6293 34.2117 30.2759 34.8056 30.5776 35.4166C30.8966 36.0793 30.9224 37.1551 30.6293 37.7748C29.9569 39.2293 28.2328 39.892 26.8103 39.2551C25.6034 38.7129 24.9052 37.3703 25.1638 36.1051C25.3707 35.1326 26.181 34.2117 27.069 33.9277C27.6466 33.747 28.4483 33.7728 29 33.9793Z" fill="#616161"/>
</svg>
