<svg width="56" height="57" viewBox="0 0 56 57" fill="none" xmlns="http://www.w3.org/2000/svg">
<rect y="0.0131836" width="56" height="56" rx="4" fill="white"/>
<path d="M6 6.03037C6.06814 7.42256 9.12477 44.4702 9.18318 44.5132C9.22212 44.5476 13.4858 45.7937 18.6548 47.2976L28.0486 50.0132L37.4424 47.2804C46.0769 44.7624 46.8459 44.5304 46.9043 44.3327C46.9627 44.178 50.0194 6.4085 49.9999 6.07334C49.9999 6.03896 40.0999 6.01318 28 6.01318C15.9 6.01318 6 6.02178 6 6.03037ZM42.1636 12.6905C42.1442 12.828 42.0468 13.8937 41.969 15.0796C41.8813 16.2569 41.7937 17.314 41.7645 17.4171L41.7256 17.6147H30.9106H20.0858L20.1442 18.0187C20.1734 18.2507 20.3 19.7374 20.4265 21.3272L20.6407 24.2319H30.9398C36.6052 24.2319 41.2389 24.2405 41.2389 24.2491C41.2291 24.5585 39.9734 39.7265 39.9539 39.7437C39.9344 39.7522 37.2575 40.5601 33.9964 41.5226L28.0681 43.2843L22.0716 41.5226C18.7717 40.5515 16.0655 39.7608 16.0557 39.7522C16.0363 39.7437 15.6371 34.8538 15.6371 34.6476C15.6371 34.5702 16.3088 34.5444 18.5478 34.5444H21.4584L21.5265 35.2577L21.5947 35.971L24.7973 36.9077L28 37.853L31.1929 36.9163C32.9451 36.4007 34.3858 35.971 34.4053 35.9624C34.4442 35.928 34.9114 30.2304 34.9114 29.7491V29.3882H25.0309H15.1504V29.1304C15.1504 28.9929 14.8681 25.2976 14.5177 20.9233C14.1672 16.5491 13.8849 12.8538 13.8849 12.7077V12.4585H28.0486H42.2123L42.1636 12.6905Z" fill="#616161"/>
</svg>
