<svg width="56" height="57" viewBox="0 0 56 57" fill="none" xmlns="http://www.w3.org/2000/svg">
<rect y="0.0131836" width="56" height="56" rx="4" fill="white"/>
<path d="M8 28.0132V48.0132H28H48V28.0132V8.01318H28H8L8 28.0132ZM38.2978 26.1557C38.2611 26.1614 38.199 26.1614 38.1567 26.1557C38.1115 26.1501 38.1426 26.1444 38.2188 26.1444C38.2978 26.1444 38.3317 26.1501 38.2978 26.1557ZM38.7354 26.1557C38.6902 26.1614 38.6224 26.1614 38.5801 26.1557C38.5349 26.1501 38.5716 26.1444 38.6563 26.1444C38.741 26.1444 38.7777 26.1501 38.7354 26.1557ZM37.8574 26.1811C37.849 26.1896 37.8236 26.1924 37.8038 26.184C37.7812 26.1755 37.7897 26.167 37.8208 26.167C37.8518 26.1642 37.8687 26.1727 37.8574 26.1811ZM39.156 26.1811C39.1475 26.1896 39.1221 26.1924 39.1023 26.184C39.0797 26.1755 39.0882 26.167 39.1193 26.167C39.1503 26.1642 39.1673 26.1727 39.156 26.1811ZM39.2773 26.2235C39.4721 26.2432 39.6697 26.2574 39.7149 26.2602C39.7629 26.2602 39.8052 26.2715 39.8137 26.2828C39.8222 26.2941 39.9012 26.3082 39.9887 26.311C40.0762 26.3166 40.1411 26.3279 40.1355 26.3364C40.1299 26.3477 40.1722 26.3646 40.2315 26.3731C40.3754 26.3985 40.8949 26.5622 40.9287 26.5905C40.9428 26.6046 40.9711 26.6159 40.9908 26.6159C41.0473 26.6159 41.4905 26.8332 41.7332 26.98C42.47 27.4204 43.1108 28.0866 43.65 28.9673C43.7092 29.0661 43.7516 29.1621 43.7403 29.1762C43.7318 29.1931 43.5088 29.3428 43.2435 29.5093C42.9809 29.6759 42.6563 29.8847 42.5236 29.9694C42.0014 30.3082 41.8998 30.3731 41.4284 30.678C41.1602 30.8502 40.9203 30.9913 40.892 30.9913C40.8638 30.9885 40.7763 30.8812 40.6634 30.709C40.0819 29.8113 39.427 29.4359 38.4587 29.4444C37.9647 29.4472 37.6457 29.5319 37.3352 29.738C37.0473 29.9271 36.8553 30.167 36.7311 30.4917C36.6464 30.7034 36.6351 31.3809 36.7114 31.6265C36.9118 32.2814 37.5243 32.7443 39.0233 33.3766C39.1164 33.4161 39.2661 33.4811 39.3536 33.5206C39.4439 33.5601 39.5427 33.6025 39.5737 33.6137C39.6048 33.6279 39.6867 33.6646 39.7572 33.6956C39.8278 33.7267 39.9633 33.7859 40.0621 33.8255C40.5815 34.0428 41.4312 34.4663 41.9026 34.7429C43.2181 35.5164 44.0282 36.3632 44.4855 37.4416C44.5589 37.6137 44.6973 38.0513 44.717 38.167C44.7255 38.2291 44.7452 38.2658 44.7622 38.2545C44.7763 38.2461 44.7819 38.2489 44.7735 38.2658C44.7622 38.2828 44.7763 38.4324 44.8017 38.6018C44.8694 39.0591 44.8836 40.0696 44.8243 40.4169C44.8017 40.5665 44.7763 40.7415 44.7735 40.8036C44.7706 40.8685 44.7594 40.9165 44.7509 40.9109C44.7396 40.9052 44.7227 40.9476 44.7114 41.0068C44.686 41.148 44.573 41.4867 44.463 41.7464C44.1186 42.5651 43.4862 43.3018 42.6761 43.8241C41.8998 44.3265 40.7509 44.7161 39.8363 44.7866C39.7149 44.7951 39.6217 44.8092 39.6274 44.8205C39.6415 44.8403 39.5032 44.8459 38.6563 44.8459C37.7897 44.8459 37.6429 44.8403 37.657 44.8205C37.6627 44.8092 37.5752 44.7951 37.4622 44.7866C37.1404 44.7584 36.5872 44.6568 36.2287 44.5552C35.9323 44.4705 35.8786 44.4592 35.8504 44.4761C35.8335 44.4874 35.8278 44.4846 35.8391 44.4705C35.8504 44.4592 35.7742 44.4197 35.6697 44.383C35.5653 44.3463 35.4552 44.3039 35.4241 44.2898C35.3931 44.2757 35.3112 44.2418 35.2407 44.2136C35.0064 44.1205 34.3769 43.7845 34.151 43.6349C33.3832 43.1212 32.7537 42.4945 32.2258 41.7154C32.079 41.4952 31.8532 41.0943 31.8532 41.052C31.8532 41.0379 31.952 40.9701 32.0734 40.9024C32.192 40.8346 32.3924 40.7189 32.5166 40.6455C32.6408 40.5721 32.8836 40.4338 33.0529 40.335C33.3493 40.1628 33.6316 39.9991 34.2244 39.6519C34.6309 39.4119 34.8088 39.3188 34.8511 39.3188C34.8737 39.3188 34.9668 39.4373 35.0628 39.5785C35.7629 40.637 36.6323 41.2637 37.6994 41.4783C37.9647 41.5319 37.9337 41.5291 38.614 41.5319C39.06 41.5319 39.2237 41.5234 39.3903 41.4839C39.856 41.3738 40.2174 41.2101 40.5222 40.9701C40.7735 40.7725 41.0558 40.3463 41.0642 40.1515C41.067 40.1007 41.0783 40.064 41.0868 40.0696C41.1179 40.0866 41.1404 39.9172 41.1404 39.6886C41.1404 39.4543 41.115 39.2567 41.0868 39.2736C41.0783 39.2792 41.067 39.2341 41.0642 39.172C41.0473 38.8812 40.6521 38.3816 40.2033 38.0795C39.9915 37.9384 39.3451 37.5996 39.0233 37.4585C38.9386 37.4218 38.8003 37.3625 38.7184 37.3258C38.6366 37.2891 38.4954 37.227 38.4023 37.1875C38.247 37.1226 38.0889 37.052 37.7953 36.9221C37.7332 36.8939 37.5243 36.8036 37.3296 36.7189C36.6888 36.4479 35.8701 36.016 35.3959 35.697C34.5547 35.1324 33.897 34.4267 33.5243 33.6871C33.4143 33.4641 33.2562 33.0915 33.2279 32.9814C33.2195 32.9504 33.1912 32.8544 33.1687 32.7697C33.0925 32.5015 33.0106 32.0753 33.0106 31.937C33.0106 31.8664 33.0021 31.8128 32.9908 31.8184C32.9767 31.8269 32.9682 31.5305 32.9654 31.1607C32.9654 30.7909 32.9767 30.4945 32.988 30.5001C33.0078 30.5114 33.0191 30.39 33.0219 30.1529C33.0219 30.119 33.0303 30.0965 33.0416 30.1049C33.0529 30.1106 33.0699 30.0626 33.0812 29.9977C33.1009 29.8847 33.1376 29.7492 33.2223 29.4811C33.2788 29.3089 33.4481 28.925 33.5498 28.7415C34.0071 27.9116 34.7608 27.2115 35.6697 26.7739C36.0028 26.613 36.5674 26.4126 36.7876 26.3759C36.8525 26.3646 36.9005 26.3477 36.8948 26.3364C36.8864 26.3251 36.9033 26.3166 36.9287 26.3166C37.1009 26.3166 37.2195 26.3025 37.2082 26.2828C37.1997 26.2715 37.2336 26.2602 37.2816 26.2602C37.3324 26.2574 37.4933 26.2432 37.6401 26.2291C38.0155 26.1896 38.8596 26.1868 39.2773 26.2235ZM29.7586 32.8967C29.7699 39.6688 29.7643 39.92 29.6486 40.6032C29.6006 40.8967 29.5808 40.9842 29.5074 41.2524C29.3663 41.7662 29.1066 42.3392 28.8186 42.7768C28.5928 43.1155 28.0254 43.6857 27.6951 43.9031C27.2068 44.2221 26.6196 44.4959 26.2272 44.5806C26.1793 44.5919 26.1567 44.6116 26.168 44.6314C26.1793 44.6512 26.1764 44.654 26.1567 44.6427C26.1369 44.6314 25.9986 44.6483 25.8462 44.6766C25.4058 44.7669 25.2279 44.7923 24.8384 44.8233C22.8963 44.9758 21.1574 44.462 19.9944 43.3922C19.4185 42.8615 19.06 42.3985 18.6733 41.6815C18.6253 41.5912 18.5857 41.4952 18.5857 41.4698C18.5886 41.4387 18.8483 41.2665 19.3649 40.956C19.7911 40.6991 20.4601 40.2983 20.8497 40.0612C21.6288 39.5898 21.5921 39.601 21.6965 39.8099C21.8038 40.0273 22.2357 40.6512 22.391 40.8205C22.5688 41.0125 22.8116 41.2044 22.9922 41.3004C23.2548 41.4416 23.6133 41.5375 23.7601 41.5093C23.825 41.498 23.8391 41.5008 23.808 41.5206C23.7798 41.5404 23.8476 41.5488 24.0282 41.5488C24.1722 41.5488 24.2851 41.5375 24.2766 41.5234C24.2682 41.5121 24.2936 41.5065 24.3331 41.5149C24.4347 41.5347 24.7763 41.467 24.9795 41.3879C25.3013 41.2637 25.5639 41.0351 25.7332 40.7274C25.8292 40.5552 25.9365 40.2334 25.9139 40.1797C25.9054 40.1543 25.9083 40.143 25.9252 40.1515C25.9506 40.1684 25.9591 40.1374 26.0099 39.7789C26.0296 39.6462 26.0381 37.3456 26.0381 33.0012C26.0381 29.3851 26.0466 26.4183 26.0579 26.4098C26.0663 26.3985 26.9019 26.3929 27.9125 26.3957L29.7502 26.4042L29.7586 32.8967ZM38.8059 29.4867C38.7862 29.4924 38.7523 29.4924 38.7354 29.4867C38.7156 29.4783 38.7297 29.4726 38.7692 29.4726C38.8088 29.4726 38.8229 29.4783 38.8059 29.4867ZM32.9457 30.7147C32.9372 30.7372 32.9287 30.7288 32.9287 30.6977C32.9259 30.6667 32.9344 30.6497 32.9428 30.661C32.9513 30.6695 32.9541 30.6949 32.9457 30.7147ZM32.9457 31.6603C32.9372 31.6886 32.9315 31.666 32.9315 31.6123C32.9315 31.5587 32.9372 31.5361 32.9457 31.5615C32.9513 31.5898 32.9513 31.6349 32.9457 31.6603ZM26.0014 39.5361C25.9929 39.5643 25.9873 39.5474 25.9873 39.5022C25.9873 39.4543 25.9929 39.4345 26.0014 39.4514C26.0071 39.4712 26.0071 39.5107 26.0014 39.5361ZM29.7841 39.8749C29.7756 39.9031 29.7699 39.8862 29.7699 39.841C29.7699 39.793 29.7756 39.7732 29.7841 39.7902C29.7897 39.8099 29.7897 39.8495 29.7841 39.8749ZM23.5737 44.8685C23.5653 44.877 23.5399 44.8798 23.5201 44.8713C23.4975 44.8629 23.506 44.8544 23.5371 44.8544C23.5681 44.8516 23.585 44.86 23.5737 44.8685ZM37.9139 44.8685C37.9054 44.877 37.88 44.8798 37.8603 44.8713C37.8377 44.8629 37.8462 44.8544 37.8772 44.8544C37.9083 44.8516 37.9252 44.86 37.9139 44.8685ZM39.4665 44.8685C39.458 44.877 39.4326 44.8798 39.4128 44.8713C39.3903 44.8629 39.3987 44.8544 39.4298 44.8544C39.4608 44.8516 39.4778 44.86 39.4665 44.8685Z" fill="#616161"/>
</svg>
