<svg width="56" height="56" viewBox="0 0 56 56" fill="none" xmlns="http://www.w3.org/2000/svg">
<rect x="10.5" y="10.5" width="35" height="35" fill="#616161"/>
<path fill-rule="evenodd" clip-rule="evenodd" d="M0 8.75C0 3.91751 3.91751 0 8.75 0H47.25C52.0825 0 56 3.91751 56 8.75V47.25C56 52.0825 52.0825 56 47.25 56H8.75C3.91751 56 0 52.0825 0 47.25V8.75ZM14.35 23.275V42H20.3V23.275H14.35ZM14 17.325C14 19.25 15.4 20.65 17.325 20.65C19.25 20.65 20.65 19.25 20.65 17.325C20.65 15.4 19.25 14 17.325 14C15.575 14 14 15.4 14 17.325ZM36.05 42H41.65V30.45C41.65 24.675 38.15 22.75 34.825 22.75C31.85 22.75 29.75 24.675 29.225 25.9V23.275H23.625V42H29.575V32.025C29.575 29.4 31.325 28 33.075 28C34.825 28 36.05 28.875 36.05 31.85V42Z" fill="white"/>
</svg>
