<svg width="32" height="33" viewBox="0 0 32 33" fill="none" xmlns="http://www.w3.org/2000/svg">
<rect x="5" y="7.47363" width="22" height="20" fill="#616161"/>
<path fill-rule="evenodd" clip-rule="evenodd" d="M12.6 22.6736C13.6 23.2736 14.8 23.5736 16 23.5736C19.7 23.5736 22.6 20.5736 22.6 17.0736C22.6 15.2736 22 13.6736 20.7 12.3736C19.4 11.1736 17.8 10.4736 16 10.4736C12.4 10.4736 9.39999 13.4736 9.39999 17.0736C9.39999 18.2736 9.7 19.4736 10.4 20.5736L10.6 20.8736L9.89999 23.2736L12.4 22.5736L12.6 22.6736ZM18.2 17.9736C18.4 17.9736 19.4 18.4736 19.6 18.5736C19.6311 18.5892 19.6623 18.6023 19.6931 18.6153C19.8599 18.6858 20.0156 18.7515 20.1 19.1736C20.2 19.1736 20.2 19.5736 20 20.0736C19.9 20.4736 19.1 20.9736 18.7 20.9736C18.6322 20.9736 18.5673 20.9794 18.498 20.9855C18.1582 21.0156 17.712 21.055 16.3 20.4736C14.5475 19.7726 13.3325 18.0735 12.9913 17.5964C12.9431 17.529 12.9124 17.486 12.9 17.4736C12.883 17.4396 12.8485 17.3852 12.8031 17.3136C12.5819 16.9643 12.1 16.2034 12.1 15.3736C12.1 14.3736 12.6 13.8736 12.8 13.6736C13 13.4736 13.2 13.4736 13.3 13.4736H13.7C13.8 13.4736 14 13.4736 14.1 13.7736C14.3 14.1736 14.7 15.1736 14.7 15.2736C14.7 15.307 14.7111 15.3403 14.7222 15.3736C14.7445 15.4403 14.7667 15.507 14.7 15.5736C14.65 15.6236 14.625 15.6736 14.6 15.7236C14.575 15.7736 14.55 15.8236 14.5 15.8736L14.2 16.1736C14.1 16.2736 14 16.3736 14.1 16.5736C14.2 16.7736 14.6 17.4736 15.2 17.9736C15.8751 18.5644 16.4078 18.799 16.6778 18.918C16.7278 18.94 16.7688 18.958 16.8 18.9736C17 18.9736 17.1 18.9736 17.2 18.8736C17.25 18.7736 17.375 18.6236 17.5 18.4736C17.625 18.3236 17.75 18.1736 17.8 18.0736C17.9 17.8736 18 17.8736 18.2 17.9736Z" fill="white"/>
<path fill-rule="evenodd" clip-rule="evenodd" d="M0 5.97363C0 3.21221 2.23858 0.973633 5 0.973633H27C29.7614 0.973633 32 3.21221 32 5.97363V27.9736C32 30.7351 29.7614 32.9736 27 32.9736H5C2.23858 32.9736 0 30.7351 0 27.9736V5.97363ZM16 8.97363C18.1 8.97363 20.1 9.77364 21.6 11.2736C23.1 12.7736 24 14.7736 24 16.8736C24 21.2736 20.4 24.8736 16 24.8736C14.7 24.8736 13.4 24.4736 12.2 23.8736L8 24.9736L9.10001 20.9736C8.40001 19.7736 8 18.3736 8 16.9736C8 12.5736 11.6 8.97363 16 8.97363Z" fill="white"/>
</svg>
