<svg width="44" height="28" viewBox="0 0 44 28" fill="none" xmlns="http://www.w3.org/2000/svg">
<path d="M19.8428 13.6387C18.6311 20.909 17.6428 26.8645 17.6514 26.8731C17.6858 26.9075 21.9311 27.6036 21.9569 27.5778C21.9741 27.5606 22.9538 21.6997 24.1397 14.5668C25.3256 7.42544 26.3225 1.48715 26.3397 1.36684L26.3913 1.1434L24.4319 0.825436C23.3577 0.644967 22.378 0.481686 22.2577 0.455905L22.0428 0.42153L19.8428 13.6387Z" fill="black"/>
<path d="M6.11875 7.84653L0 13.9653L6.16172 20.1356L12.332 26.2973L13.8531 24.7762L15.3828 23.2465L10.768 18.6317L6.14453 14.0082L10.768 9.38481L15.3828 4.76997L13.8531 3.24028C13.0195 2.40668 12.3148 1.71918 12.2891 1.71918C12.2633 1.71918 9.4875 4.47778 6.11875 7.84653Z" fill="black"/>
<path d="M30.1383 3.24028L28.6172 4.76997L33.232 9.38481L37.8555 14.0082L33.232 18.6317L28.6172 23.2465L30.1469 24.7762L31.668 26.2973L37.8383 20.1356L44 13.9653L37.8813 7.84653C34.5125 4.47778 31.7367 1.71918 31.7109 1.71918C31.6852 1.71918 30.9805 2.40668 30.1383 3.24028Z" fill="black"/>
</svg>
