<svg width="32" height="32" viewBox="0 0 32 32" fill="none" xmlns="http://www.w3.org/2000/svg">
<rect width="32" height="32" rx="4" fill="black"/>
<path d="M6.03124 6.24219C6.04462 6.37891 6.45962 10.4219 6.94154 15.2305C7.42793 20.0391 7.83847 23.9805 7.84739 23.9922C7.86078 24.0039 9.7037 24.457 11.9393 25.0039L16.0045 26L20.0696 25.0039C22.3052 24.457 24.1481 24.0039 24.1571 23.9922C24.1705 23.9805 25.9866 6.24219 26 6.00781C26 6.00391 21.502 6 16 6H6L6.03124 6.24219ZM22.3186 9.83594C22.3052 9.92969 22.0643 12.2812 21.7831 15.0625C21.145 21.332 21.1941 20.8867 21.1495 20.9219C21.1316 20.9375 19.9625 21.2266 18.5569 21.5664L16 22.1797L13.4476 21.5664C12.0419 21.2266 10.8773 20.9375 10.8594 20.9219C10.8327 20.8984 10.4757 17.6992 10.4712 17.4336C10.4712 17.3711 10.5605 17.3672 11.7207 17.3672C12.6845 17.3672 12.979 17.3789 12.9924 17.4141C13.0013 17.4414 13.0504 17.8594 13.0995 18.3398C13.1486 18.8203 13.1977 19.2188 13.2021 19.2227C13.2378 19.2461 15.9286 19.8672 15.9955 19.8672C16.0625 19.8672 18.7711 19.2422 18.8068 19.2188C18.8157 19.2148 18.9005 18.582 18.9942 17.8086C19.0924 17.0391 19.1772 16.3516 19.1905 16.2812L19.2129 16.1562H14.7818H10.3507L10.324 16.0078C10.257 15.6055 10.1008 14.125 10.1232 14.1016C10.1365 14.0898 12.0553 14.0625 14.3847 14.043C16.7095 14.0234 18.7979 13.9961 19.021 13.9844L19.4226 13.9609L19.5029 12.9609C19.5431 12.4102 19.5921 11.9062 19.6055 11.8438L19.6278 11.7344L14.7372 11.75L9.85096 11.7617L9.82865 11.5664C9.81526 11.4609 9.78403 11.0703 9.75725 10.707C9.73048 10.3398 9.69924 9.96094 9.68585 9.85547L9.65908 9.67188H16.0045H22.3454L22.3186 9.83594Z" fill="#757575"/>
</svg>
