<svg width="33" height="33" viewBox="0 0 33 33" fill="none" xmlns="http://www.w3.org/2000/svg">
<rect x="0.5" y="0.910156" width="32" height="32" rx="4" fill="black"/>
<g clip-path="url(#clip0_70_1937)">
<path fill-rule="evenodd" clip-rule="evenodd" d="M16.5002 14.4101C15.1195 14.4101 14.0002 15.5294 14.0002 16.9101C14.0002 18.2908 15.1195 19.4101 16.5002 19.4101C17.8809 19.4101 19.0002 18.2908 19.0002 16.9101C19.0002 15.5294 17.8809 14.4101 16.5002 14.4101ZM12.3335 16.9101C12.3335 14.6089 14.199 12.7434 16.5002 12.7434C18.8013 12.7434 20.6668 14.6089 20.6668 16.9101C20.6668 19.2113 18.8013 21.0767 16.5002 21.0767C14.199 21.0767 12.3335 19.2113 12.3335 16.9101Z" fill="#757575"/>
<path fill-rule="evenodd" clip-rule="evenodd" d="M12.5836 8.62275C14.4541 7.73878 16.5687 7.51358 18.5834 7.98377C20.5982 8.45395 22.3946 9.59186 23.6807 11.2125C24.9667 12.8331 25.6667 14.8411 25.6668 16.91V17.7434C25.6668 18.6274 25.3157 19.4753 24.6905 20.1004C24.0654 20.7255 23.2176 21.0767 22.3335 21.0767C21.4495 21.0767 20.6016 20.7255 19.9765 20.1004C19.3514 19.4753 19.0002 18.6274 19.0002 17.7434V13.5767C19.0002 13.1165 19.3733 12.7434 19.8335 12.7434C20.2937 12.7434 20.6668 13.1165 20.6668 13.5767V17.7434C20.6668 18.1854 20.8424 18.6093 21.155 18.9219C21.4676 19.2345 21.8915 19.41 22.3335 19.41C22.7755 19.41 23.1995 19.2345 23.512 18.9219C23.8246 18.6093 24.0002 18.1854 24.0002 17.7434V16.9101C24.0002 16.9101 24.0002 16.9101 24.0002 16.9101C24.0001 15.2174 23.4273 13.5744 22.3751 12.2485C21.3229 10.9225 19.8531 9.99152 18.2047 9.60682C16.5562 9.22213 14.8261 9.40638 13.2957 10.1296C11.7652 10.8529 10.5245 12.0726 9.77511 13.5904C9.02576 15.1082 8.8119 16.8349 9.1683 18.4897C9.5247 20.1445 10.4304 21.63 11.7381 22.7048C13.0459 23.7796 14.6787 24.3804 16.3712 24.4095C18.0637 24.4386 19.7163 23.8943 21.0602 22.8651C21.4256 22.5853 21.9486 22.6546 22.2285 23.02C22.5083 23.3854 22.4389 23.9085 22.0735 24.1883C20.4309 25.4462 18.4112 26.1115 16.3426 26.0759C14.274 26.0403 12.2783 25.306 10.6799 23.9924C9.08157 22.6788 7.97459 20.8631 7.53899 18.8406C7.10339 16.8181 7.36478 14.7077 8.28066 12.8526C9.19654 10.9975 10.713 9.50671 12.5836 8.62275Z" fill="#757575"/>
</g>
<defs>
<clipPath id="clip0_70_1937">
<rect width="20" height="20" fill="white" transform="translate(6.5 6.91016)"/>
</clipPath>
</defs>
</svg>
