<svg width="32" height="32" viewBox="0 0 32 32" fill="none" xmlns="http://www.w3.org/2000/svg">
<rect width="32" height="32" rx="4" fill="black"/>
<path d="M15.4475 6.05647C15.0987 6.1308 14.8009 6.26381 14.5031 6.47897C14.3738 6.57285 12.5086 8.41151 10.3652 10.5592C6.26646 14.6629 6.32132 14.6043 6.10188 15.1793C6.00784 15.418 6 15.4923 6 16.0087C6 16.5251 6.00784 16.5994 6.10188 16.838C6.32132 17.417 6.25862 17.3466 10.4436 21.5285C13.4765 24.5604 14.4757 25.5384 14.656 25.644C14.7853 25.7183 15.0321 25.8318 15.2045 25.8905C15.4788 25.9883 15.5729 26 15.9882 26C16.3919 26 16.5016 25.9844 16.7798 25.8905C16.9679 25.8318 17.2226 25.7066 17.3871 25.5931C17.5987 25.4523 18.6881 24.3882 21.6152 21.4581L25.5611 17.5148L25.7218 17.1823C25.9334 16.7441 26 16.4625 26 16.0087C26 15.414 25.8472 14.9368 25.5102 14.4869C25.3103 14.217 17.6223 6.57285 17.4067 6.42811C16.8425 6.04864 16.1215 5.91172 15.4475 6.05647ZM16.576 6.97579C16.6936 7.01883 16.8934 7.13228 17.0188 7.22616C17.2578 7.40612 24.75 14.925 24.8911 15.1285C25.2006 15.5744 25.2163 16.349 24.9185 16.8498C24.8676 16.9358 23.0415 18.7862 20.8589 20.9613C16.5094 25.2919 16.8072 25.0298 16.2155 25.1276C15.8511 25.1902 15.4436 25.1041 15.1183 24.8929C14.9734 24.7951 13.4687 23.3163 10.9882 20.8361C6.50549 16.3451 6.85815 16.7598 6.85815 16.0048C6.85815 15.6096 6.86207 15.5823 7.00313 15.3006C7.14028 15.0268 7.2931 14.8664 10.1575 12.0067L13.1669 9.00614L13.6724 9.51079L14.174 10.0154L14.0721 10.1876C13.9389 10.4184 13.8135 10.9113 13.8135 11.2164C13.8135 11.5333 13.9389 12.0106 14.0878 12.2727C14.3503 12.7343 14.8049 13.1099 15.2829 13.2703L15.5376 13.3563V15.5744V17.7965L15.373 17.8434C14.8166 18.0077 14.2876 18.4615 14.0329 18.9896C13.4255 20.265 14.1661 21.7594 15.5572 22.0528C15.902 22.1232 16.0745 22.1232 16.4193 22.0528C17.8574 21.7515 18.5862 20.2024 17.9044 18.8997C17.6575 18.4302 17.156 18.0077 16.674 17.863L16.4389 17.7926V15.5744V13.3563L16.6466 13.2898C16.7563 13.2546 16.9287 13.1803 17.0266 13.1294L17.1991 13.0316L17.8652 13.6967L18.5313 14.3617L18.4295 14.5495C18.261 14.8624 18.1865 15.1676 18.1865 15.5784C18.1865 16.1769 18.3981 16.6815 18.8252 17.104C19.2602 17.5344 19.7382 17.73 20.3574 17.73C20.9765 17.73 21.4545 17.5344 21.8856 17.104C22.3166 16.6737 22.5165 16.1886 22.5165 15.5784C22.5165 14.9563 22.3166 14.4752 21.8699 14.0292C21.4663 13.6262 20.906 13.3876 20.3574 13.3876C20.0831 13.3876 19.656 13.4932 19.3817 13.6262L19.1348 13.7475L18.4726 13.0903L17.8143 12.4292L17.9436 12.1631C18.355 11.326 18.1904 10.3558 17.5204 9.68683C16.8425 9.01005 15.8589 8.84966 15.0086 9.27998L14.7774 9.40125L14.2759 8.90051L13.7743 8.39977L14.3895 7.78167C15.04 7.13228 15.2633 6.97579 15.6552 6.89364C15.902 6.84278 16.3213 6.87799 16.576 6.97579ZM16.5839 10.0624C16.8621 10.1993 17.0345 10.3832 17.1795 10.6883C17.2618 10.8644 17.2813 10.9622 17.2813 11.2164C17.2813 11.4942 17.2657 11.5646 17.152 11.7915C17.0071 12.0888 16.8307 12.2609 16.5172 12.4057C16.2116 12.5504 15.7688 12.5504 15.4592 12.4057C15.1771 12.2727 14.9263 12.0262 14.8009 11.7524C14.656 11.4394 14.652 10.9974 14.797 10.6883C14.9655 10.3284 15.3103 10.0389 15.6826 9.94503C15.9373 9.88243 16.3135 9.92938 16.5839 10.0624ZM20.8589 14.3734C21.1097 14.4673 21.4036 14.7412 21.5329 15.0111C21.6152 15.1754 21.6309 15.2615 21.6309 15.5784C21.6309 15.903 21.6191 15.9735 21.5251 16.1456C21.1058 16.9476 20.0596 17.1119 19.4287 16.4781C19.1818 16.2356 19.0878 16.0087 19.0721 15.637C19.0525 15.2537 19.1466 14.9681 19.3738 14.7099C19.7382 14.2991 20.3025 14.17 20.8589 14.3734ZM16.4545 18.7119C16.7406 18.8175 17.0345 19.0874 17.1716 19.3652C17.3166 19.6664 17.3284 20.1554 17.1951 20.4371C16.8895 21.0982 16.1058 21.3995 15.4592 21.11C14.9107 20.8635 14.5933 20.2532 14.7108 19.6782C14.8049 19.2361 15.1732 18.8175 15.5768 18.6884C15.8393 18.6063 16.2038 18.618 16.4545 18.7119Z" fill="#757575"/>
</svg>
