<svg width="32" height="32" viewBox="0 0 32 32" fill="none" xmlns="http://www.w3.org/2000/svg">
<rect width="32" height="32" rx="4" fill="black"/>
<path d="M6 6.00781C6.03097 6.64062 7.42035 23.4805 7.4469 23.5C7.4646 23.5156 9.40265 24.082 11.7522 24.7656L16.0221 26L20.292 24.7578C24.2168 23.6133 24.5663 23.5078 24.5929 23.418C24.6194 23.3477 26.0088 6.17969 26 6.02734C26 6.01172 21.5 6 16 6C10.5 6 6 6.00391 6 6.00781ZM22.438 9.03516C22.4292 9.09766 22.3849 9.58203 22.3495 10.1211C22.3097 10.6562 22.2699 11.1367 22.2566 11.1836L22.2389 11.2734H17.323H12.4026L12.4292 11.457C12.4425 11.5625 12.5 12.2383 12.5575 12.9609L12.6549 14.2812H17.3363C19.9115 14.2812 22.0177 14.2852 22.0177 14.2891C22.0132 14.4297 21.4424 21.3242 21.4336 21.332C21.4247 21.3359 20.2079 21.7031 18.7256 22.1406L16.031 22.9414L13.3053 22.1406C11.8053 21.6992 10.5752 21.3398 10.5708 21.3359C10.5619 21.332 10.3805 19.1094 10.3805 19.0156C10.3805 18.9805 10.6858 18.9688 11.7035 18.9688H13.0265L13.0575 19.293L13.0885 19.6172L14.5442 20.043L16 20.4727L17.4513 20.0469C18.2478 19.8125 18.9026 19.6172 18.9115 19.6133C18.9292 19.5977 19.1416 17.0078 19.1416 16.7891V16.625H14.6504H10.1593V16.5078C10.1593 16.4453 10.031 14.7656 9.87167 12.7773C9.71238 10.7891 9.58406 9.10938 9.58406 9.04297V8.92969H16.0221H22.4601L22.438 9.03516Z" fill="#757575"/>
</svg>
