<svg width="32" height="32" viewBox="0 0 32 32" fill="none" xmlns="http://www.w3.org/2000/svg">
<rect width="32" height="32" rx="4" fill="black"/>
<path d="M6 16V26H16H26V16V6H16H6V16ZM21.1489 15.0713C21.1306 15.0741 21.0995 15.0741 21.0783 15.0713C21.0558 15.0685 21.0713 15.0656 21.1094 15.0656C21.1489 15.0656 21.1658 15.0685 21.1489 15.0713ZM21.3677 15.0713C21.3451 15.0741 21.3112 15.0741 21.29 15.0713C21.2675 15.0685 21.2858 15.0656 21.3282 15.0656C21.3705 15.0656 21.3889 15.0685 21.3677 15.0713ZM20.9287 15.084C20.9245 15.0882 20.9118 15.0896 20.9019 15.0854C20.8906 15.0812 20.8948 15.0769 20.9104 15.0769C20.9259 15.0755 20.9344 15.0797 20.9287 15.084ZM21.578 15.084C21.5737 15.0882 21.561 15.0896 21.5512 15.0854C21.5399 15.0812 21.5441 15.0769 21.5596 15.0769C21.5752 15.0755 21.5836 15.0797 21.578 15.084ZM21.6387 15.1052C21.7361 15.115 21.8349 15.1221 21.8574 15.1235C21.8814 15.1235 21.9026 15.1291 21.9068 15.1348C21.9111 15.1404 21.9506 15.1475 21.9944 15.1489C22.0381 15.1517 22.0706 15.1574 22.0677 15.1616C22.0649 15.1673 22.0861 15.1757 22.1157 15.18C22.1877 15.1927 22.4474 15.2745 22.4644 15.2886C22.4714 15.2957 22.4855 15.3013 22.4954 15.3013C22.5236 15.3013 22.7452 15.41 22.8666 15.4834C23.235 15.7036 23.5554 16.0367 23.825 16.4771C23.8546 16.5265 23.8758 16.5745 23.8701 16.5815C23.8659 16.59 23.7544 16.6648 23.6217 16.7481C23.4905 16.8313 23.3282 16.9358 23.2618 16.9781C23.0007 17.1475 22.9499 17.18 22.7142 17.3324C22.5801 17.4185 22.4601 17.4891 22.446 17.4891C22.4319 17.4876 22.3881 17.434 22.3317 17.3479C22.0409 16.8991 21.7135 16.7114 21.2294 16.7156C20.9824 16.717 20.8229 16.7594 20.6676 16.8624C20.5236 16.957 20.4277 17.0769 20.3656 17.2392C20.3232 17.3451 20.3176 17.6838 20.3557 17.8066C20.4559 18.1341 20.7622 18.3656 21.5116 18.6817C21.5582 18.7015 21.633 18.7339 21.6768 18.7537C21.7219 18.7735 21.7713 18.7946 21.7869 18.8003C21.8024 18.8073 21.8433 18.8257 21.8786 18.8412C21.9139 18.8567 21.9817 18.8864 22.0311 18.9061C22.2908 19.0148 22.7156 19.2265 22.9513 19.3649C23.609 19.7516 24.0141 20.175 24.2428 20.7142C24.2795 20.8003 24.3486 21.0191 24.3585 21.0769C24.3627 21.108 24.3726 21.1263 24.3811 21.1207C24.3881 21.1164 24.391 21.1179 24.3867 21.1263C24.3811 21.1348 24.3881 21.2096 24.4008 21.2943C24.4347 21.5229 24.4418 22.0282 24.4121 22.2018C24.4008 22.2766 24.3881 22.3641 24.3867 22.3952C24.3853 22.4277 24.3797 22.4517 24.3754 22.4488C24.3698 22.446 24.3613 22.4672 24.3557 22.4968C24.343 22.5674 24.2865 22.7368 24.2315 22.8666C24.0593 23.2759 23.7431 23.6443 23.338 23.9054C22.9499 24.1567 22.3754 24.3514 21.9181 24.3867C21.8574 24.391 21.8109 24.398 21.8137 24.4037C21.8207 24.4135 21.7516 24.4164 21.3282 24.4164C20.8948 24.4164 20.8215 24.4135 20.8285 24.4037C20.8313 24.398 20.7876 24.391 20.7311 24.3867C20.5702 24.3726 20.2936 24.3218 20.1143 24.271C19.9661 24.2287 19.9393 24.223 19.9252 24.2315C19.9167 24.2371 19.9139 24.2357 19.9195 24.2287C19.9252 24.223 19.8871 24.2032 19.8349 24.1849C19.7826 24.1665 19.7276 24.1454 19.7121 24.1383C19.6965 24.1313 19.6556 24.1143 19.6203 24.1002C19.5032 24.0536 19.1884 23.8857 19.0755 23.8109C18.6916 23.554 18.3769 23.2406 18.1129 22.8511C18.0395 22.741 17.9266 22.5406 17.9266 22.5194C17.9266 22.5124 17.976 22.4785 18.0367 22.4446C18.096 22.4107 18.1962 22.3529 18.2583 22.3162C18.3204 22.2795 18.4418 22.2103 18.5265 22.1609C18.6747 22.0748 18.8158 21.9929 19.1122 21.8193C19.3155 21.6994 19.4044 21.6528 19.4255 21.6528C19.4368 21.6528 19.4834 21.7121 19.5314 21.7826C19.8814 22.3119 20.3162 22.6253 20.8497 22.7325C20.9824 22.7594 20.9668 22.7579 21.307 22.7594C21.53 22.7594 21.6119 22.7551 21.6951 22.7354C21.928 22.6803 22.1087 22.5984 22.2611 22.4785C22.3867 22.3797 22.5279 22.1665 22.5321 22.0692C22.5335 22.0438 22.5392 22.0254 22.5434 22.0282C22.5589 22.0367 22.5702 21.952 22.5702 21.8377C22.5702 21.7205 22.5575 21.6217 22.5434 21.6302C22.5392 21.633 22.5335 21.6104 22.5321 21.5794C22.5236 21.434 22.326 21.1842 22.1016 21.0332C21.9958 20.9626 21.6725 20.7932 21.5116 20.7227C21.4693 20.7043 21.4001 20.6747 21.3592 20.6563C21.3183 20.638 21.2477 20.6069 21.2011 20.5872C21.1235 20.5547 21.0445 20.5194 20.8977 20.4545C20.8666 20.4404 20.7622 20.3952 20.6648 20.3529C20.3444 20.2174 19.9351 20.0014 19.698 19.8419C19.2773 19.5596 18.9485 19.2068 18.7622 18.837C18.7071 18.7255 18.6281 18.5392 18.614 18.4841C18.6097 18.4686 18.5956 18.4206 18.5843 18.3783C18.5462 18.2442 18.5053 18.0311 18.5053 17.9619C18.5053 17.9266 18.5011 17.8998 18.4954 17.9026C18.4884 17.9068 18.4841 17.7586 18.4827 17.5737C18.4827 17.3889 18.4884 17.2407 18.494 17.2435C18.5039 17.2491 18.5095 17.1884 18.5109 17.0699C18.5109 17.0529 18.5152 17.0416 18.5208 17.0459C18.5265 17.0487 18.5349 17.0247 18.5406 16.9922C18.5505 16.9358 18.5688 16.868 18.6112 16.7339C18.6394 16.6478 18.7241 16.4559 18.7749 16.3642C19.0035 15.9492 19.3804 15.5992 19.8349 15.3804C20.0014 15.2999 20.2837 15.1997 20.3938 15.1814C20.4263 15.1757 20.4502 15.1673 20.4474 15.1616C20.4432 15.156 20.4517 15.1517 20.4644 15.1517C20.5505 15.1517 20.6097 15.1447 20.6041 15.1348C20.5999 15.1291 20.6168 15.1235 20.6408 15.1235C20.6662 15.1221 20.7466 15.115 20.82 15.108C21.0078 15.0882 21.4298 15.0868 21.6387 15.1052ZM16.8793 18.4418C16.885 21.8278 16.8821 21.9534 16.8243 22.295C16.8003 22.4418 16.7904 22.4855 16.7537 22.6196C16.6831 22.8765 16.5533 23.163 16.4093 23.3818C16.2964 23.5512 16.0127 23.8363 15.8476 23.945C15.6034 24.1044 15.3098 24.2414 15.1136 24.2837C15.0896 24.2893 15.0783 24.2992 15.084 24.3091C15.0896 24.319 15.0882 24.3204 15.0783 24.3147C15.0685 24.3091 14.9993 24.3176 14.9231 24.3317C14.7029 24.3769 14.614 24.3896 14.4192 24.4051C13.4481 24.4813 12.5787 24.2244 11.9972 23.6895C11.7092 23.4241 11.53 23.1927 11.3366 22.8342C11.3126 22.789 11.2929 22.741 11.2929 22.7283C11.2943 22.7128 11.4241 22.6267 11.6824 22.4714C11.8956 22.343 12.2301 22.1426 12.4248 22.024C12.8144 21.7883 12.796 21.7939 12.8483 21.8984C12.9019 22.0071 13.1179 22.319 13.1955 22.4037C13.2844 22.4996 13.4058 22.5956 13.4961 22.6436C13.6274 22.7142 13.8066 22.7622 13.88 22.7481C13.9125 22.7424 13.9195 22.7438 13.904 22.7537C13.8899 22.7636 13.9238 22.7678 14.0141 22.7678C14.0861 22.7678 14.1426 22.7622 14.1383 22.7551C14.1341 22.7495 14.1468 22.7466 14.1665 22.7509C14.2174 22.7608 14.3881 22.7269 14.4898 22.6874C14.6507 22.6253 14.7819 22.5109 14.8666 22.3571C14.9146 22.271 14.9682 22.1101 14.957 22.0833C14.9527 22.0706 14.9541 22.0649 14.9626 22.0692C14.9753 22.0776 14.9795 22.0621 15.0049 21.8829C15.0148 21.8165 15.0191 20.6662 15.0191 18.494C15.0191 16.686 15.0233 15.2025 15.0289 15.1983C15.0332 15.1927 15.451 15.1898 15.9562 15.1912L16.8751 15.1955L16.8793 18.4418ZM21.403 16.7368C21.3931 16.7396 21.3761 16.7396 21.3677 16.7368C21.3578 16.7325 21.3649 16.7297 21.3846 16.7297C21.4044 16.7297 21.4114 16.7325 21.403 16.7368ZM18.4728 17.3507C18.4686 17.362 18.4644 17.3578 18.4644 17.3423C18.463 17.3267 18.4672 17.3183 18.4714 17.3239C18.4757 17.3282 18.4771 17.3409 18.4728 17.3507ZM18.4728 17.8236C18.4686 17.8377 18.4658 17.8264 18.4658 17.7996C18.4658 17.7728 18.4686 17.7615 18.4728 17.7742C18.4757 17.7883 18.4757 17.8109 18.4728 17.8236ZM15.0007 21.7615C14.9965 21.7756 14.9936 21.7671 14.9936 21.7445C14.9936 21.7205 14.9965 21.7107 15.0007 21.7191C15.0035 21.729 15.0035 21.7488 15.0007 21.7615ZM16.892 21.9308C16.8878 21.945 16.885 21.9365 16.885 21.9139C16.885 21.8899 16.8878 21.88 16.892 21.8885C16.8948 21.8984 16.8948 21.9181 16.892 21.9308ZM13.7869 24.4277C13.7826 24.4319 13.7699 24.4333 13.7601 24.4291C13.7488 24.4248 13.753 24.4206 13.7685 24.4206C13.7841 24.4192 13.7925 24.4234 13.7869 24.4277ZM20.957 24.4277C20.9527 24.4319 20.94 24.4333 20.9301 24.4291C20.9188 24.4248 20.9231 24.4206 20.9386 24.4206C20.9541 24.4192 20.9626 24.4234 20.957 24.4277ZM21.7332 24.4277C21.729 24.4319 21.7163 24.4333 21.7064 24.4291C21.6951 24.4248 21.6994 24.4206 21.7149 24.4206C21.7304 24.4192 21.7389 24.4234 21.7332 24.4277Z" fill="#757575"/>
</svg>
