<svg width="33" height="33" viewBox="0 0 33 33" fill="none" xmlns="http://www.w3.org/2000/svg">
<rect x="5.5" y="7.41016" width="22" height="20" fill="#757575"/>
<path fill-rule="evenodd" clip-rule="evenodd" d="M13.1 22.6102C14.1 23.2102 15.3 23.5102 16.5 23.5102C20.2 23.5102 23.1 20.5102 23.1 17.0102C23.1 15.2102 22.5 13.6102 21.2 12.3102C19.9 11.1102 18.3 10.4102 16.5 10.4102C12.9 10.4102 9.89999 13.4102 9.89999 17.0102C9.89999 18.2102 10.2 19.4102 10.9 20.5102L11.1 20.8102L10.4 23.2102L12.9 22.5102L13.1 22.6102ZM18.7 17.9102C18.9 17.9102 19.9 18.4102 20.1 18.5102C20.1311 18.5257 20.1623 18.5389 20.1931 18.5519C20.3599 18.6223 20.5156 18.688 20.6 19.1102C20.7 19.1102 20.7 19.5102 20.5 20.0102C20.4 20.4102 19.6 20.9102 19.2 20.9102C19.1322 20.9102 19.0673 20.9159 18.998 20.922C18.6582 20.9521 18.212 20.9916 16.8 20.4102C15.0475 19.7092 13.8325 18.0101 13.4913 17.5329C13.4431 17.4655 13.4124 17.4225 13.4 17.4102C13.383 17.3761 13.3485 17.3218 13.3031 17.2501C13.0819 16.9008 12.6 16.1399 12.6 15.3102C12.6 14.3102 13.1 13.8102 13.3 13.6102C13.5 13.4102 13.7 13.4102 13.8 13.4102H14.2C14.3 13.4102 14.5 13.4102 14.6 13.7102C14.8 14.1102 15.2 15.1102 15.2 15.2102C15.2 15.2435 15.2111 15.2768 15.2222 15.3102C15.2445 15.3768 15.2667 15.4435 15.2 15.5102C15.15 15.5602 15.125 15.6102 15.1 15.6602C15.075 15.7102 15.05 15.7602 15 15.8102L14.7 16.1102C14.6 16.2102 14.5 16.3102 14.6 16.5102C14.7 16.7102 15.1 17.4102 15.7 17.9102C16.3751 18.5009 16.9078 18.7355 17.1778 18.8545C17.2278 18.8765 17.2688 18.8945 17.3 18.9102C17.5 18.9102 17.6 18.9102 17.7 18.8102C17.75 18.7102 17.875 18.5602 18 18.4102C18.125 18.2602 18.25 18.1102 18.3 18.0102C18.4 17.8102 18.5 17.8102 18.7 17.9102Z" fill="black"/>
<path fill-rule="evenodd" clip-rule="evenodd" d="M0.5 5.91016C0.5 3.14873 2.73858 0.910156 5.5 0.910156H27.5C30.2614 0.910156 32.5 3.14873 32.5 5.91016V27.9102C32.5 30.6716 30.2614 32.9102 27.5 32.9102H5.5C2.73858 32.9102 0.5 30.6716 0.5 27.9102V5.91016ZM16.5 8.91016C18.6 8.91016 20.6 9.71016 22.1 11.2102C23.6 12.7102 24.5 14.7102 24.5 16.8102C24.5 21.2102 20.9 24.8102 16.5 24.8102C15.2 24.8102 13.9 24.4102 12.7 23.8102L8.5 24.9102L9.60001 20.9102C8.90001 19.7102 8.5 18.3102 8.5 16.9102C8.5 12.5102 12.1 8.91016 16.5 8.91016Z" fill="black"/>
</svg>
